<svg width="445" height="125" xmlns="http://www.w3.org/2000/svg">
 <!-- Created with SVG Editor - http://github.com/mzalive/SVG Editor/ -->

 <g>
  <title>background</title>
  <rect fill="none" id="canvas_background" height="127" width="447" y="-1" x="-1"/>
  <g display="none" overflow="visible" y="0" x="0" height="100%" width="100%" id="canvasGrid">
   <rect fill="url(#gridpattern)" stroke-width="0" y="0" x="0" height="100%" width="100%"/>
  </g>
 </g>
 <g>
  <title>Layer 1</title>
  <text transform="matrix(19.1895 0 0 25.8739 -5745.32 -5508.47)" stroke="#000" xml:space="preserve" text-anchor="start" font-family="Sylfaen, sans-serif" font-size="3" id="svg_1" y="216.350313" x="306.101481" stroke-width="0" fill="#e66060">Neliapila</text>
  <g id="svg_6">
   <path transform="rotate(-19.2013 56.5617 38.5607)" id="svg_2" d="m56.561768,26.887054c9.070374,-26.578584 44.608948,0 0,34.173645c-44.6091,-34.173645 -9.070435,-60.752229 0,-34.173645z" stroke-opacity="null" stroke-width="" stroke="" fill="#74924a"/>
   <path transform="rotate(-114.31 42.5617 72.5607)" id="svg_3" d="m42.561768,60.887054c9.070404,-26.578583 44.608948,0 0,34.173645c-44.6091,-34.173645 -9.070435,-60.752228 0,-34.173645z" stroke-opacity="null" stroke-width="" stroke="" fill="#74924a"/>
   <path transform="rotate(161.314 74.5617 86.5607)" id="svg_4" d="m74.561768,74.887054c9.070374,-26.578583 44.608948,0 0,34.173645c-44.6091,-34.173645 -9.070435,-60.752228 0,-34.173645z" stroke-opacity="null" stroke-width="" stroke="" fill="#74924a"/>
   <path stroke="" transform="rotate(60.8298 89.5617 51.5607)" id="svg_5" d="m89.561768,39.887054c9.070374,-26.578584 44.608948,0 0,34.173645c-44.6091,-34.173645 -9.070435,-60.752229 0,-34.173645z" stroke-opacity="null" stroke-width="" fill="#74924a"/>
  </g>
 </g>
</svg>