<svg width="327" height="104" viewBox="0 0 327 104" fill="none" xmlns="http://www.w3.org/2000/svg">
    <path d="M18.4045 65.8423C-8.78515 68.4962 0.543551 25.5168 48.6943 51.8874C36.2655 106.168 -1.52176 84.8951 18.4045 65.8423Z"
          fill="#74924A"/>
    <path d="M38.6697 17.3187C38.4989 -10.5378 79.6422 2.76573 49.6009 49.3307C-2.30297 31.8717 21.8369 -4.61965 38.6697 17.3187Z"
          fill="#74924A"/>
    <path d="M83.4507 35.2891C110.322 30.2952 104.597 73.9261 54.429 51.811C62.3039 -3.34815 101.722 14.5829 83.4507 35.2891Z"
          fill="#74924A"/>
    <path d="M63.9175 86.1025C63.8427 113.959 22.8183 100.279 53.269 53.9915C105.017 71.926 80.5562 108.194 63.9175 86.1025Z"
          fill="#74924A"/>
    <path d="M114.591 34.24H122.131C122.478 35.67 122.889 37.2517 123.366 38.985C123.843 40.7183 124.341 42.56 124.861 44.51C125.381 46.4167 125.923 48.3883 126.486 50.425C127.049 52.4617 127.613 54.4767 128.176 56.47C128.826 58.6367 129.433 60.7383 129.996 62.775C130.603 64.8117 131.166 66.6967 131.686 68.43C132.206 70.12 132.661 71.5933 133.051 72.85C133.051 71.55 133.051 70.2067 133.051 68.82C133.051 67.4333 133.029 66.025 132.986 64.595C132.986 63.165 132.986 61.7133 132.986 60.24C132.986 58.7233 132.986 57.2067 132.986 55.69C132.986 54.3033 132.964 52.895 132.921 51.465C132.921 49.9917 132.921 48.5183 132.921 47.045C132.921 45.5717 132.899 44.0983 132.856 42.625C132.856 41.1083 132.856 39.5917 132.856 38.075C132.856 36.5583 132.834 35.0417 132.791 33.525H137.666C137.623 34.8683 137.579 36.385 137.536 38.075C137.493 39.765 137.449 41.585 137.406 43.535C137.406 45.4417 137.384 47.4567 137.341 49.58C137.341 51.7033 137.341 53.8483 137.341 56.015C137.341 58.095 137.341 60.175 137.341 62.255C137.341 64.335 137.341 66.3933 137.341 68.43C137.384 70.4233 137.406 72.3517 137.406 74.215C137.449 76.0783 137.493 77.8117 137.536 79.415L130.256 79.935C129.823 78.2883 129.346 76.555 128.826 74.735C128.349 72.8717 127.829 70.9433 127.266 68.95C126.703 66.9567 126.139 64.9633 125.576 62.97C125.013 60.9333 124.449 58.9183 123.886 56.925C123.453 55.4517 123.019 54.0217 122.586 52.635C122.196 51.205 121.806 49.84 121.416 48.54C121.026 47.24 120.636 46.005 120.246 44.835C119.899 43.6217 119.553 42.495 119.206 41.455C119.206 42.495 119.206 43.6433 119.206 44.9C119.206 46.1133 119.206 47.4133 119.206 48.8C119.249 50.1433 119.271 51.5733 119.271 53.09C119.271 54.6067 119.271 56.1667 119.271 57.77C119.271 59.1133 119.271 60.5 119.271 61.93C119.314 63.3167 119.336 64.7467 119.336 66.22C119.336 67.6933 119.336 69.1883 119.336 70.705C119.379 72.2217 119.401 73.76 119.401 75.32C119.401 76.88 119.423 78.44 119.466 80L114.786 79.935C114.786 78.4617 114.786 76.8583 114.786 75.125C114.829 73.3917 114.851 71.55 114.851 69.6C114.894 67.65 114.916 65.635 114.916 63.555C114.916 61.475 114.916 59.395 114.916 57.315C114.916 55.1483 114.894 53.025 114.851 50.945C114.851 48.8217 114.829 46.7633 114.786 44.77C114.786 42.7767 114.764 40.8917 114.721 39.115C114.678 37.3383 114.634 35.7133 114.591 34.24ZM146.012 80.325C146.012 80.325 146.012 79.805 146.012 78.765C146.055 77.6817 146.077 76.2517 146.077 74.475C146.12 72.6983 146.142 70.705 146.142 68.495C146.142 66.2417 146.142 63.9233 146.142 61.54C146.185 59.1133 146.207 56.795 146.207 54.585C146.207 51.8117 146.185 49.2117 146.142 46.785C146.142 44.3583 146.12 42.235 146.077 40.415C146.077 38.595 146.055 37.165 146.012 36.125C146.012 35.085 146.012 34.565 146.012 34.565L151.017 35.15C151.017 35.15 150.995 35.5833 150.952 36.45C150.952 37.2733 150.952 38.3783 150.952 39.765C150.952 41.1517 150.93 42.7117 150.887 44.445C150.887 46.135 150.865 47.8467 150.822 49.58C150.822 51.3133 150.822 52.9383 150.822 54.455C150.822 55.9717 150.822 57.8133 150.822 59.98C150.865 62.1033 150.887 64.3133 150.887 66.61C150.93 68.8633 150.952 70.9867 150.952 72.98C150.995 74.9733 151.017 76.5983 151.017 77.855C151.06 79.0683 151.082 79.675 151.082 79.675L146.012 80.325ZM146.012 80.325L148.872 75.71L165.382 76.035V80L146.012 80.325ZM148.547 66.805V62.385L165.187 62.58L165.057 66.545L148.547 66.805ZM148.092 39.375L146.012 34.565L164.602 34.955V39.31L148.092 39.375ZM171.847 80.65C171.89 78.57 171.912 76.0783 171.912 73.175C171.955 70.2283 171.977 67.1733 171.977 64.01C172.02 60.8467 172.042 57.9217 172.042 55.235C172.042 52.505 172.02 49.84 171.977 47.24C171.977 44.5967 171.955 42.1917 171.912 40.025C171.912 37.8583 171.89 36.125 171.847 34.825L177.047 34.11C177.004 35.54 176.939 37.1867 176.852 39.05C176.809 40.87 176.765 42.755 176.722 44.705C176.679 46.655 176.635 48.54 176.592 50.36C176.592 52.1367 176.592 53.7183 176.592 55.105C176.592 56.4917 176.592 58.2033 176.592 60.24C176.635 62.2767 176.657 64.4433 176.657 66.74C176.7 69.0367 176.722 71.3117 176.722 73.565C176.765 75.8183 176.809 77.855 176.852 79.675L171.847 80.65ZM171.847 80.65L174.707 75.97L191.542 75.84V79.805L171.847 80.65ZM200.597 80.52L195.397 79.935C195.44 79.0683 195.462 78.05 195.462 76.88C195.505 75.6667 195.527 74.345 195.527 72.915C195.57 71.485 195.592 69.99 195.592 68.43C195.635 66.8267 195.657 65.2017 195.657 63.555C195.7 61.9083 195.722 60.2833 195.722 58.68C195.722 56.08 195.722 53.5017 195.722 50.945C195.722 48.3883 195.722 46.005 195.722 43.795C195.722 41.5417 195.722 39.6133 195.722 38.01C195.722 36.4067 195.7 35.2583 195.657 34.565L200.922 33.525C200.878 35.3883 200.813 37.49 200.727 39.83C200.64 42.1267 200.553 44.445 200.467 46.785C200.423 49.125 200.38 51.335 200.337 53.415C200.293 55.4517 200.272 57.1633 200.272 58.55C200.272 59.9367 200.272 61.5617 200.272 63.425C200.315 65.2883 200.358 67.2383 200.402 69.275C200.445 71.3117 200.467 73.305 200.467 75.255C200.51 77.205 200.553 78.96 200.597 80.52ZM227.63 80.39C227.196 78.05 226.72 75.645 226.2 73.175C225.68 70.6617 225.16 68.1267 224.64 65.57C224.12 62.97 223.578 60.37 223.015 57.77C222.668 56.1233 222.321 54.4767 221.975 52.83C221.628 51.14 221.281 49.4933 220.935 47.89C220.631 46.2433 220.328 44.6183 220.025 43.015C219.721 41.4117 219.418 39.83 219.115 38.27L215.93 34.37L222.95 34.24C223.166 35.5833 223.426 37.1 223.73 38.79C224.076 40.48 224.423 42.3217 224.77 44.315C225.16 46.265 225.571 48.3017 226.005 50.425C226.438 52.505 226.871 54.6283 227.305 56.795C227.911 59.655 228.518 62.4933 229.125 65.31C229.775 68.1267 230.381 70.7917 230.945 73.305C231.551 75.8183 232.093 78.0717 232.57 80.065L227.63 80.39ZM210.795 69.535V65.05L227.435 65.375V69.015L210.795 69.535ZM210.795 79.675L206.245 79.61C206.721 77.7033 207.22 75.515 207.74 73.045C208.303 70.575 208.888 67.9533 209.495 65.18C210.101 62.3633 210.708 59.5467 211.315 56.73C211.965 53.87 212.571 51.075 213.135 48.345C213.698 45.615 214.218 43.0583 214.695 40.675C215.171 38.2483 215.583 36.1467 215.93 34.37L222.95 34.24L219.505 38.66C219.071 40.61 218.616 42.625 218.14 44.705C217.706 46.785 217.251 48.8867 216.775 51.01C216.341 53.09 215.908 55.1917 215.475 57.315C214.955 59.915 214.413 62.4933 213.85 65.05C213.33 67.6067 212.81 70.12 212.29 72.59C211.813 75.0167 211.315 77.3783 210.795 79.675ZM241.436 66.285L241.176 62.06C243.343 62.06 245.249 61.93 246.896 61.67C248.543 61.3667 249.929 60.825 251.056 60.045C252.183 59.2217 253.028 58.0517 253.591 56.535C254.198 54.975 254.501 52.96 254.501 50.49C254.501 47.1533 254.241 44.5533 253.721 42.69C253.201 40.8267 252.269 39.5267 250.926 38.79C249.583 38.01 247.698 37.62 245.271 37.62C244.708 37.62 244.123 37.6417 243.516 37.685C242.909 37.685 242.259 37.7283 241.566 37.815C240.916 37.8583 240.201 37.9233 239.421 38.01L237.991 33.85C238.771 33.8067 239.508 33.7633 240.201 33.72C240.894 33.6767 241.566 33.655 242.216 33.655C242.909 33.6117 243.559 33.59 244.166 33.59C247.719 33.59 250.579 34.045 252.746 34.955C254.913 35.8217 256.494 37.4683 257.491 39.895C258.531 42.2783 259.051 45.745 259.051 50.295C259.051 54.325 258.336 57.51 256.906 59.85C255.476 62.19 253.439 63.8583 250.796 64.855C248.153 65.8083 245.033 66.285 241.436 66.285ZM237.926 80.39C237.969 78.57 238.013 76.3383 238.056 73.695C238.099 71.0517 238.121 68.2567 238.121 65.31C238.164 62.32 238.186 59.4817 238.186 56.795C238.186 54.065 238.164 51.27 238.121 48.41C238.121 45.5067 238.099 42.7767 238.056 40.22C238.056 37.6633 238.034 35.54 237.991 33.85L243.191 34.305C243.148 35.5183 243.104 36.8833 243.061 38.4C243.061 39.8733 243.039 41.4117 242.996 43.015C242.953 44.6183 242.909 46.2217 242.866 47.825C242.866 49.4283 242.844 50.9883 242.801 52.505C242.801 54.0217 242.801 55.4083 242.801 56.665C242.801 57.7483 242.801 59.0483 242.801 60.565C242.801 62.0383 242.801 63.6417 242.801 65.375C242.844 67.065 242.866 68.7983 242.866 70.575C242.909 72.3083 242.931 73.9983 242.931 75.645C242.974 77.2483 243.018 78.7433 243.061 80.13L237.926 80.39ZM269.85 80.52L264.65 79.935C264.693 79.0683 264.715 78.05 264.715 76.88C264.758 75.6667 264.78 74.345 264.78 72.915C264.823 71.485 264.845 69.99 264.845 68.43C264.888 66.8267 264.91 65.2017 264.91 63.555C264.953 61.9083 264.975 60.2833 264.975 58.68C264.975 56.08 264.975 53.5017 264.975 50.945C264.975 48.3883 264.975 46.005 264.975 43.795C264.975 41.5417 264.975 39.6133 264.975 38.01C264.975 36.4067 264.953 35.2583 264.91 34.565L270.175 33.525C270.131 35.3883 270.066 37.49 269.98 39.83C269.893 42.1267 269.806 44.445 269.72 46.785C269.676 49.125 269.633 51.335 269.59 53.415C269.546 55.4517 269.525 57.1633 269.525 58.55C269.525 59.9367 269.525 61.5617 269.525 63.425C269.568 65.2883 269.611 67.2383 269.655 69.275C269.698 71.3117 269.72 73.305 269.72 75.255C269.763 77.205 269.806 78.96 269.85 80.52ZM278.488 80.65C278.531 78.57 278.553 76.0783 278.553 73.175C278.596 70.2283 278.618 67.1733 278.618 64.01C278.661 60.8467 278.683 57.9217 278.683 55.235C278.683 52.505 278.661 49.84 278.618 47.24C278.618 44.5967 278.596 42.1917 278.553 40.025C278.553 37.8583 278.531 36.125 278.488 34.825L283.688 34.11C283.644 35.54 283.579 37.1867 283.493 39.05C283.449 40.87 283.406 42.755 283.363 44.705C283.319 46.655 283.276 48.54 283.233 50.36C283.233 52.1367 283.233 53.7183 283.233 55.105C283.233 56.4917 283.233 58.2033 283.233 60.24C283.276 62.2767 283.298 64.4433 283.298 66.74C283.341 69.0367 283.363 71.3117 283.363 73.565C283.406 75.8183 283.449 77.855 283.493 79.675L278.488 80.65ZM278.488 80.65L281.348 75.97L298.183 75.84V79.805L278.488 80.65ZM320.432 80.39C319.999 78.05 319.522 75.645 319.002 73.175C318.482 70.6617 317.962 68.1267 317.442 65.57C316.922 62.97 316.381 60.37 315.817 57.77C315.471 56.1233 315.124 54.4767 314.777 52.83C314.431 51.14 314.084 49.4933 313.737 47.89C313.434 46.2433 313.131 44.6183 312.827 43.015C312.524 41.4117 312.221 39.83 311.917 38.27L308.732 34.37L315.752 34.24C315.969 35.5833 316.229 37.1 316.532 38.79C316.879 40.48 317.226 42.3217 317.572 44.315C317.962 46.265 318.374 48.3017 318.807 50.425C319.241 52.505 319.674 54.6283 320.107 56.795C320.714 59.655 321.321 62.4933 321.927 65.31C322.577 68.1267 323.184 70.7917 323.747 73.305C324.354 75.8183 324.896 78.0717 325.372 80.065L320.432 80.39ZM303.597 69.535V65.05L320.237 65.375V69.015L303.597 69.535ZM303.597 79.675L299.047 79.61C299.524 77.7033 300.022 75.515 300.542 73.045C301.106 70.575 301.691 67.9533 302.297 65.18C302.904 62.3633 303.511 59.5467 304.117 56.73C304.767 53.87 305.374 51.075 305.937 48.345C306.501 45.615 307.021 43.0583 307.497 40.675C307.974 38.2483 308.386 36.1467 308.732 34.37L315.752 34.24L312.307 38.66C311.874 40.61 311.419 42.625 310.942 44.705C310.509 46.785 310.054 48.8867 309.577 51.01C309.144 53.09 308.711 55.1917 308.277 57.315C307.757 59.915 307.216 62.4933 306.652 65.05C306.132 67.6067 305.612 70.12 305.092 72.59C304.616 75.0167 304.117 77.3783 303.597 79.675Z"
          fill="#E66060"/>
</svg>
