<svg width="64px" height="64px" viewBox="0 0 59 31" fill="none" xmlns="http://www.w3.org/2000/svg">
<path d="M58.05 28.15H53.25C52.8 16.25 43.95 6.5 32.5 4.6V3.5C32.5 1.8 31.1 0.400002 29.4 0.400002C27.7 0.400002 26.3 1.8 26.3 3.5V4.35C13.9 5.4 4.1 15.6 3.65 28.15H0.8C0.35 28.15 0 28.55 0 29.1C0 29.6 0.35 30.05 0.8 30.05H4.55H52.3H58C58.45 30.05 58.8 29.65 58.8 29.1C58.85 28.55 58.45 28.15 58.05 28.15ZM5.5 28.15C6 15.95 16.1 6.15 28.45 6.15C40.8 6.15 50.9 15.95 51.4 28.15H5.5ZM29.4 2.25C30.1 2.25 30.65 2.8 30.65 3.5V4.35C29.9 4.3 29.2 4.25 28.45 4.25C28.35 4.25 28.3 4.25 28.2 4.25V3.5C28.2 2.85 28.75 2.25 29.4 2.25Z" fill="black"/>
</svg>
